<?xml version="1.0" encoding="utf-8"?>
<svg version="1.1" xmlns:xlink="http://www.w3.org/1999/xlink" width="150px" height="75px" xmlns="http://www.w3.org/2000/svg">
  <g transform="matrix(1 0 0 1 -1066 -129 )">
    <path d="M 1067 133  A 3 3 0 0 1 1070 130 L 1212 130  A 3 3 0 0 1 1215 133 L 1215 200  A 3 3 0 0 1 1212 203 L 1070 203  A 3 3 0 0 1 1067 200 L 1067 133  Z " fill-rule="nonzero" fill="#ff3399" stroke="none" fill-opacity="0.0980392156862745" />
    <path d="M 1066.5 133  A 3.5 3.5 0 0 1 1070 129.5 L 1212 129.5  A 3.5 3.5 0 0 1 1215.5 133 L 1215.5 200  A 3.5 3.5 0 0 1 1212 203.5 L 1070 203.5  A 3.5 3.5 0 0 1 1066.5 200 L 1066.5 133  Z " stroke-width="1" stroke-dasharray="9,4" stroke="#ff3399" fill="none" stroke-dashoffset="0.5" />
  </g>
</svg>