<?xml version="1.0" encoding="utf-8"?>
<svg version="1.1" xmlns:xlink="http://www.w3.org/1999/xlink" width="24px" height="13px" xmlns="http://www.w3.org/2000/svg">
  <g transform="matrix(1 0 0 1 -1004 -297 )">
    <path d="M 17.8191964285714 10.1844618055555  C 19.6093749999999 9.27039930555551  21.0982142857142 8.04224537037035  22.2857142857141 6.49999999999997  C 20.9285714285713 4.72453703703698  19.2276785714284 3.39670138888888  17.1830357142859 2.51649305555554  C 17.7276785714284 3.29890046296299  18 4.14525462962963  18 5.05555555555553  C 18 6.44733796296301  17.4129464285713 7.63787615740739  16.2388392857141 8.62717013888891  C 15.0647321428571 9.61646412037036  13.6517857142857 10.1111111111111  12 10.1111111111111  C 10.3482142857143 10.1111111111111  8.93526785714289 9.61646412037036  7.76116071428589 8.62717013888891  C 6.58705357142867 7.63787615740739  6 6.44733796296301  6 5.05555555555553  C 6 4.14525462962963  6.27232142857156 3.29890046296299  6.81696428571411 2.51649305555554  C 4.77232142857156 3.39670138888888  3.07142857142867 4.72453703703698  1.71428571428589 6.49999999999997  C 2.90178571428578 8.04224537037035  4.39062500000011 9.27039930555551  6.18080357142856 10.1844618055555  C 7.97098214285722 11.0985243055555  9.91071428571411 11.5555555555555  12 11.5555555555555  C 14.0892857142859 11.5555555555555  16.0290178571428 11.0985243055555  17.8191964285714 10.1844618055555  Z M 12.4553571428571 2.55034722222223  C 12.5803571428571 2.44502314814813  12.6428571428571 2.31712962962962  12.6428571428571 2.16666666666666  C 12.6428571428571 2.01620370370375  12.5803571428571 1.88831018518513  12.4553571428571 1.78298611111114  C 12.3303571428572 1.67766203703699  12.1785714285716 1.62500000000002  12 1.62500000000002  C 10.8839285714284 1.62500000000002  9.92633928571433 1.9616608796296  9.12723214285711 2.63498263888888  C 8.32812500000011 3.30830439814815  7.92857142857144 4.11516203703702  7.92857142857144 5.05555555555553  C 7.92857142857144 5.2060185185185  7.99107142857133 5.333912037037  8.11607142857144 5.4392361111111  C 8.24107142857156 5.54456018518515  8.39285714285722 5.59722222222223  8.57142857142856 5.59722222222223  C 8.75000000000011 5.59722222222223  8.90178571428578 5.54456018518515  9.02678571428589 5.4392361111111  C 9.15178571428567 5.333912037037  9.21428571428589 5.2060185185185  9.21428571428589 5.05555555555553  C 9.21428571428589 4.40856481481486  9.48660714285711 3.85561342592587  10.03125 3.39670138888888  C 10.5758928571429 2.93778935185188  11.2321428571429 2.70833333333335  12 2.70833333333335  C 12.1785714285716 2.70833333333335  12.3303571428572 2.65567129629627  12.4553571428571 2.55034722222223  Z M 23.7321428571429 5.72135416666665  C 23.9107142857142 5.98466435185188  24 6.24421296296296  24 6.49999999999997  C 24 6.75578703703698  23.9107142857142 7.01533564814813  23.7321428571429 7.27864583333335  C 22.4821428571429 9.00896990740741  20.8013392857143 10.3951099537037  18.6897321428571 11.4370659722222  C 16.5781250000001 12.4790219907408  14.3482142857142 13  12 13  C 9.65178571428578 13  7.42187499999989 12.4771412037037  5.31026785714289 11.4314236111111  C 3.19866071428567 10.3857060185185  1.51785714285711 9.00144675925926  0.26785714285711 7.27864583333335  C 0.0892857142857792 7.01533564814813  0 6.75578703703698  0 6.49999999999997  C 0 6.24421296296296  0.0892857142857792 5.98466435185188  0.26785714285711 5.72135416666665  C 1.51785714285711 3.99855324074074  3.19866071428567 2.61429398148148  5.31026785714289 1.56857638888887  C 7.42187499999989 0.52285879629625  9.65178571428578 0  12 0  C 14.3482142857142 0  16.5781250000001 0.52285879629625  18.6897321428571 1.56857638888887  C 20.8013392857143 2.61429398148148  22.4821428571429 3.99855324074074  23.7321428571429 5.72135416666665  Z " fill-rule="nonzero" fill="#999999" stroke="none" transform="matrix(1 0 0 1 1004 297 )" />
  </g>
</svg>