<?xml version="1.0" encoding="utf-8"?>
<svg version="1.1" xmlns:xlink="http://www.w3.org/1999/xlink" width="24px" height="19px" xmlns="http://www.w3.org/2000/svg">
  <g transform="matrix(1 0 0 1 -1004 -320 )">
    <path d="M 18.1875 17.181640625  C 18.3701923076924 17.0249565972222  18.4615384615385 16.8394097222222  18.4615384615385 16.625  C 18.4615384615385 16.4105902777778  18.3701923076924 16.2250434027778  18.1875 16.068359375  C 18.0048076923077 15.9116753472222  17.7884615384614 15.8333333333333  17.5384615384615 15.8333333333333  C 17.2884615384615 15.8333333333333  17.0721153846154 15.9116753472222  16.8894230769231 16.068359375  C 16.7067307692307 16.2250434027778  16.6153846153845 16.4105902777778  16.6153846153845 16.625  C 16.6153846153845 16.8394097222222  16.7067307692307 17.0249565972222  16.8894230769231 17.181640625  C 17.0721153846154 17.3383246527778  17.2884615384615 17.4166666666667  17.5384615384615 17.4166666666667  C 17.7884615384614 17.4166666666667  18.0048076923077 17.3383246527778  18.1875 17.181640625  Z M 21.8798076923077 17.181640625  C 22.0625 17.0249565972222  22.1538461538462 16.8394097222222  22.1538461538462 16.625  C 22.1538461538462 16.4105902777778  22.0625 16.2250434027778  21.8798076923077 16.068359375  C 21.6971153846154 15.9116753472222  21.4807692307692 15.8333333333333  21.2307692307693 15.8333333333333  C 20.9807692307693 15.8333333333333  20.7644230769231 15.9116753472222  20.5817307692307 16.068359375  C 20.3990384615385 16.2250434027778  20.3076923076923 16.4105902777778  20.3076923076923 16.625  C 20.3076923076923 16.8394097222222  20.3990384615385 17.0249565972222  20.5817307692307 17.181640625  C 20.7644230769231 17.3383246527778  20.9807692307693 17.4166666666667  21.2307692307693 17.4166666666667  C 21.4807692307692 17.4166666666667  21.6971153846154 17.3383246527778  21.8798076923077 17.181640625  Z M 23.5961538461538 13.0130208333333  C 23.8653846153846 13.2439236111111  24 13.5243055555556  24 13.8541666666666  L 24 17.8125  C 24 18.1423611111111  23.8653846153846 18.4227430555556  23.5961538461538 18.6536458333333  C 23.3269230769231 18.8845486111111  23 19  22.6153846153845 19  L 1.38461538461547 19  C 1 19  0.673076923076906 18.8845486111111  0.403846153846189 18.6536458333333  C 0.134615384615358 18.4227430555556  0 18.1423611111111  0 17.8125  L 0 13.8541666666666  C 0 13.5243055555556  0.134615384615358 13.2439236111111  0.403846153846189 13.0130208333333  C 0.673076923076906 12.7821180555556  1 12.6666666666667  1.38461538461547 12.6666666666667  L 8.09134615384619 12.6666666666667  L 10.0384615384615 14.3489583333333  C 10.5961538461538 14.8107638888889  11.25 15.0416666666667  12 15.0416666666667  C 12.75 15.0416666666667  13.4038461538462 14.8107638888889  13.9615384615385 14.3489583333333  L 15.9230769230769 12.6666666666667  L 22.6153846153845 12.6666666666667  C 23 12.6666666666667  23.3269230769231 12.7821180555556  23.5961538461538 13.0130208333333  Z M 18.4615384615385 6.33333333333333  C 18.8653846153845 6.33333333333333  19.1490384615386 6.49414062500001  19.3125 6.81575520833336  C 19.4759615384614 7.1538628472222  19.4086538461538 7.44249131944445  19.1105769230769 7.68164062499999  L 12.6490384615385 13.2233072916667  C 12.4759615384615 13.3799913194445  12.2596153846155 13.4583333333333  12 13.4583333333333  C 11.7403846153845 13.4583333333333  11.5240384615385 13.3799913194445  11.3509615384615 13.2233072916667  L 4.88942307692309 7.68164062499999  C 4.59134615384619 7.44249131944445  4.52403846153857 7.1538628472222  4.6875 6.81575520833336  C 4.85096153846143 6.49414062500001  5.13461538461547 6.33333333333333  5.53846153846155 6.33333333333333  L 9.23076923076928 6.33333333333333  L 9.23076923076928 0.791666666666652  C 9.23076923076928 0.577256944444439  9.32211538461536 0.391710069444438  9.50480769230774 0.235026041666651  C 9.6875 0.0783420138888642  9.90384615384608 0  10.1538461538462 0  L 13.8461538461538 0  C 14.0961538461539 0  14.3125 0.0783420138888642  14.4951923076923 0.235026041666651  C 14.6778846153846 0.391710069444438  14.7692307692307 0.577256944444439  14.7692307692307 0.791666666666652  L 14.7692307692307 6.33333333333333  L 18.4615384615385 6.33333333333333  Z " fill-rule="nonzero" fill="#999999" stroke="none" transform="matrix(1 0 0 1 1004 320 )" />
  </g>
</svg>