<?xml version="1.0" encoding="utf-8"?>
<svg version="1.1" xmlns:xlink="http://www.w3.org/1999/xlink" width="836px" height="474px" xmlns="http://www.w3.org/2000/svg">
  <g transform="matrix(1 0 0 1 -302 -287 )">
    <path d="M 304 307  A 18 18 0 0 1 322 289 L 1118 289  A 18 18 0 0 1 1136 307 L 1136 741  A 18 18 0 0 1 1118 759 L 322 759  A 18 18 0 0 1 304 741 L 304 307  Z " fill-rule="nonzero" fill="#7ab7e9" stroke="none" fill-opacity="0.4" />
    <path d="M 303 307  A 19 19 0 0 1 322 288 L 1118 288  A 19 19 0 0 1 1137 307 L 1137 741  A 19 19 0 0 1 1118 760 L 322 760  A 19 19 0 0 1 303 741 L 303 307  Z " stroke-width="2" stroke-dasharray="18,8" stroke="#7ab7e9" fill="none" />
  </g>
</svg>