<?xml version="1.0" encoding="utf-8"?>
<svg version="1.1" xmlns:xlink="http://www.w3.org/1999/xlink" width="100px" height="100px" xmlns="http://www.w3.org/2000/svg">
  <g transform="matrix(1 0 0 1 -670 -391 )">
    <path d="M 675 407  A 11 11 0 0 1 686 396 L 754 396  A 11 11 0 0 1 765 407 L 765 475  A 11 11 0 0 1 754 486 L 686 486  A 11 11 0 0 1 675 475 L 675 407  Z " fill-rule="nonzero" fill="#7ab7e9" stroke="none" fill-opacity="0.4" />
    <path d="M 672.5 407  A 13.5 13.5 0 0 1 686 393.5 L 754 393.5  A 13.5 13.5 0 0 1 767.5 407 L 767.5 475  A 13.5 13.5 0 0 1 754 488.5 L 686 488.5  A 13.5 13.5 0 0 1 672.5 475 L 672.5 407  Z " stroke-width="5" stroke-dasharray="15,5" stroke="#7ab7e9" fill="none" stroke-dashoffset="0.5" />
  </g>
</svg>