<?xml version="1.0" encoding="utf-8"?>
<svg version="1.1" xmlns:xlink="http://www.w3.org/1999/xlink" width="77px" height="82px" xmlns="http://www.w3.org/2000/svg">
  <g transform="matrix(1 0 0 1 -675 -408 )">
    <path d="M 76.1789772727273 28.09375  C 76.6051136363636 28.5198863636364  76.8181818181819 29.0643939393939  76.8181818181819 29.7272727272727  L 76.8181818181819 34.2727272727273  C 76.8181818181819 34.9356060606061  76.6051136363636 35.4801136363636  76.1789772727273 35.90625  C 75.7528409090909 36.3323863636364  75.2083333333334 36.5454545454546  74.5454545454545 37  L 49 37  L 49 61.5454545454545  C 49.5454545454545 62.2083333333334  49.3323863636364 62.7528409090909  48.90625 63.1789772727272  C 48.4801136363636 63.6051136363636  47.9356060606061 63.8181818181818  47.2727272727273 63.8181818181818  L 42.7272727272727 63.8181818181818  C 42.064393939394 63.8181818181818  41.5198863636364 63.6051136363636  41.09375 63.1789772727272  C 40.6676136363636 62.7528409090909  40.4545454545455 62.2083333333334  40 61.5454545454545  L 40 46.0000000117886  L 40.4545454545455 37  L 15.4545454545455 37  C 14.7916666666666 36.5454545454546  14.2471590909091 36.3323863636364  13.8210227272727 35.90625  C 13.3948863636364 35.4801136363636  13.1818181818181 34.9356060606061  13.1818181818181 34.2727272727273  L 13.1818181818181 29.7272727272727  C 13.1818181818181 29.0643939393939  13.3948863636364 28.5198863636364  13.8210227272727 28.09375  C 14.2471590909091 27.6676136363636  14.7916666666666 27.4545454545454  15.4545454545455 28  L 40 28  L 40 2.45454545454544  C 40.4545454545455 1.79166666666663  40.6676136363636 1.24715909090912  41.09375 0.821022727272748  C 41.5198863636364 0.394886363636374  42.064393939394 0.181818181818187  42.7272727272727 0.181818181818187  L 47.2727272727273 0.181818181818187  C 47.9356060606061 0.181818181818187  48.4801136363636 0.394886363636374  48.90625 0.821022727272748  C 49.3323863636364 1.24715909090912  49.5454545454545 1.79166666666663  49 2.45454545454544  L 49 28  L 74.5454545454545 28  C 75.2083333333334 27.4545454545454  75.7528409090909 27.6676136363636  76.1789772727273 28.09375  Z M 7.42897727272725 69.5710227272727  C 9.65435606060612 71.7964015151515  4.09090909090912 61.5454545454545  4.09090909090912 61.5454545454545  C 4.09090909090912 64.6704545454545  5.2035984848485 67.3456439393939  7.42897727272725 69.5710227272727  Z M 1.0014204545455 75.9985795454545  C -2.9995265151515 71.9976325757576  15.4545454545455 82  15.4545454545455 82  C 9.82007575757575 82  5.00236742424238 79.9995265151515  1.0014204545455 75.9985795454545  Z " fill-rule="nonzero" fill="#7ab7e9" stroke="none" transform="matrix(1 0 0 1 675 408 )" />
  </g>
</svg>