<?xml version="1.0" encoding="utf-8"?>
<svg version="1.1" xmlns:xlink="http://www.w3.org/1999/xlink" width="786px" height="422px" xmlns="http://www.w3.org/2000/svg">
  <g transform="matrix(1 0 0 1 -327 -313 )">
    <path d="M 329 327  A 12 12 0 0 1 341 315 L 1099 315  A 12 12 0 0 1 1111 327 L 1111 721  A 12 12 0 0 1 1099 733 L 341 733  A 12 12 0 0 1 329 721 L 329 327  Z " fill-rule="nonzero" fill="#7ab7e9" stroke="none" fill-opacity="0" />
    <path d="M 328 327  A 13 13 0 0 1 341 314 L 1099 314  A 13 13 0 0 1 1112 327 L 1112 721  A 13 13 0 0 1 1099 734 L 341 734  A 13 13 0 0 1 328 721 L 328 327  Z " stroke-width="2" stroke-dasharray="18,8" stroke="#7ab7e9" fill="none" />
  </g>
</svg>