<?xml version="1.0" encoding="utf-8"?>
<svg version="1.1" xmlns:xlink="http://www.w3.org/1999/xlink" width="164px" height="50px" xmlns="http://www.w3.org/2000/svg">
  <g transform="matrix(1 0 0 1 -344 -283 )">
    <path d="M 345 287  A 3 3 0 0 1 348 284 L 504 284  A 3 3 0 0 1 507 287 L 507 329  A 3 3 0 0 1 504 332 L 348 332  A 3 3 0 0 1 345 329 L 345 287  Z " fill-rule="nonzero" fill="#ff3399" stroke="none" fill-opacity="0.0980392156862745" />
    <path d="M 344.5 287  A 3.5 3.5 0 0 1 348 283.5 L 504 283.5  A 3.5 3.5 0 0 1 507.5 287 L 507.5 329  A 3.5 3.5 0 0 1 504 332.5 L 348 332.5  A 3.5 3.5 0 0 1 344.5 329 L 344.5 287  Z " stroke-width="1" stroke-dasharray="9,4" stroke="#ff3399" fill="none" stroke-dashoffset="0.5" />
  </g>
</svg>