<?xml version="1.0" encoding="utf-8"?>
<svg version="1.1" xmlns:xlink="http://www.w3.org/1999/xlink" width="425px" height="123px" xmlns="http://www.w3.org/2000/svg">
  <g transform="matrix(1 0 0 1 -1093 -472 )">
    <path d="M 1094 476  A 3 3 0 0 1 1097 473 L 1514 473  A 3 3 0 0 1 1517 476 L 1517 591  A 3 3 0 0 1 1514 594 L 1097 594  A 3 3 0 0 1 1094 591 L 1094 476  Z " fill-rule="nonzero" fill="#ff3399" stroke="none" fill-opacity="0.0980392156862745" />
    <path d="M 1093.5 476  A 3.5 3.5 0 0 1 1097 472.5 L 1514 472.5  A 3.5 3.5 0 0 1 1517.5 476 L 1517.5 591  A 3.5 3.5 0 0 1 1514 594.5 L 1097 594.5  A 3.5 3.5 0 0 1 1093.5 591 L 1093.5 476  Z " stroke-width="1" stroke-dasharray="9,4" stroke="#ff3399" fill="none" stroke-dashoffset="0.5" />
  </g>
</svg>