<?xml version="1.0" encoding="utf-8"?>
<svg version="1.1" xmlns:xlink="http://www.w3.org/1999/xlink" width="236px" height="100px" xmlns="http://www.w3.org/2000/svg">
  <g transform="matrix(1 0 0 1 -1093 -632 )">
    <path d="M 1094 636  A 3 3 0 0 1 1097 633 L 1325 633  A 3 3 0 0 1 1328 636 L 1328 728  A 3 3 0 0 1 1325 731 L 1097 731  A 3 3 0 0 1 1094 728 L 1094 636  Z " fill-rule="nonzero" fill="#ff3399" stroke="none" fill-opacity="0.0980392156862745" />
    <path d="M 1093.5 636  A 3.5 3.5 0 0 1 1097 632.5 L 1325 632.5  A 3.5 3.5 0 0 1 1328.5 636 L 1328.5 728  A 3.5 3.5 0 0 1 1325 731.5 L 1097 731.5  A 3.5 3.5 0 0 1 1093.5 728 L 1093.5 636  Z " stroke-width="1" stroke-dasharray="9,4" stroke="#ff3399" fill="none" stroke-dashoffset="0.5" />
  </g>
</svg>