<?xml version="1.0" encoding="utf-8"?>
<svg version="1.1" xmlns:xlink="http://www.w3.org/1999/xlink" width="189px" height="80px" xmlns="http://www.w3.org/2000/svg">
  <g transform="matrix(1 0 0 1 -53 -378 )">
    <path d="M 54 382  A 3 3 0 0 1 57 379 L 238 379  A 3 3 0 0 1 241 382 L 241 454  A 3 3 0 0 1 238 457 L 57 457  A 3 3 0 0 1 54 454 L 54 382  Z " fill-rule="nonzero" fill="#ff3399" stroke="none" fill-opacity="0.0980392156862745" />
    <path d="M 53.5 382  A 3.5 3.5 0 0 1 57 378.5 L 238 378.5  A 3.5 3.5 0 0 1 241.5 382 L 241.5 454  A 3.5 3.5 0 0 1 238 457.5 L 57 457.5  A 3.5 3.5 0 0 1 53.5 454 L 53.5 382  Z " stroke-width="1" stroke-dasharray="9,4" stroke="#ff3399" fill="none" stroke-dashoffset="0.5" />
  </g>
</svg>