<?xml version="1.0" encoding="utf-8"?>
<svg version="1.1" xmlns:xlink="http://www.w3.org/1999/xlink" width="84px" height="84px" xmlns="http://www.w3.org/2000/svg">
  <g transform="matrix(1 0 0 1 -1327 -245 )">
    <path d="M 1369 248  C 1390.84 248  1408 265.16  1408 287  C 1408 308.84  1390.84 326  1369 326  C 1347.16 326  1330 308.84  1330 287  C 1330 265.16  1347.16 248  1369 248  Z " fill-rule="nonzero" fill="#ffffff" stroke="none" />
    <path d="M 1369 247  C 1391.4 247  1409 264.6  1409 287  C 1409 309.4  1391.4 327  1369 327  C 1346.6 327  1329 309.4  1329 287  C 1329 264.6  1346.6 247  1369 247  Z " stroke-width="4" stroke="#7ab7e9" fill="none" />
  </g>
</svg>