<?xml version="1.0" encoding="utf-8"?>
<svg version="1.1" xmlns:xlink="http://www.w3.org/1999/xlink" width="200px" height="62px" xmlns="http://www.w3.org/2000/svg">
  <g transform="matrix(1 0 0 1 -866 -144 )">
    <path d="M 867 148  A 3 3 0 0 1 870 145 L 1062 145  A 3 3 0 0 1 1065 148 L 1065 202  A 3 3 0 0 1 1062 205 L 870 205  A 3 3 0 0 1 867 202 L 867 148  Z " fill-rule="nonzero" fill="#ff3399" stroke="none" fill-opacity="0.0980392156862745" />
    <path d="M 866.5 148  A 3.5 3.5 0 0 1 870 144.5 L 1062 144.5  A 3.5 3.5 0 0 1 1065.5 148 L 1065.5 202  A 3.5 3.5 0 0 1 1062 205.5 L 870 205.5  A 3.5 3.5 0 0 1 866.5 202 L 866.5 148  Z " stroke-width="1" stroke-dasharray="9,4" stroke="#ff3399" fill="none" stroke-dashoffset="0.5" />
  </g>
</svg>