<?xml version="1.0" encoding="utf-8"?>
<svg version="1.1" xmlns:xlink="http://www.w3.org/1999/xlink" width="20px" height="13px" xmlns="http://www.w3.org/2000/svg">
  <g transform="matrix(1 0 0 1 -1066 -297 )">
    <path d="M 14.8493303571429 10.0277777777778  C 16.3411458333333 9.12777777777774  17.5818452380952 7.91851851851851  18.5714285714284 6.39999999999998  C 17.4404761904761 4.6518518518518  16.0230654761904 3.34444444444443  14.3191964285716 2.47777777777776  C 14.7730654761904 3.24814814814818  15 4.08148148148149  15 4.97777777777776  C 15 6.3481481481482  14.5107886904761 7.52037037037036  13.5323660714284 8.49444444444447  C 12.553943452381 9.46851851851852  11.3764880952381 9.95555555555558  10 9.95555555555558  C 8.62351190476193 9.95555555555558  7.44605654761904 9.46851851851852  6.46763392857156 8.49444444444447  C 5.48921130952385 7.52037037037036  5 6.3481481481482  5 4.97777777777776  C 5 4.08148148148149  5.22693452380963 3.24814814814818  5.68080357142844 2.47777777777776  C 3.97693452380963 3.34444444444443  2.55952380952385 4.6518518518518  1.42857142857156 6.39999999999998  C 2.41815476190482 7.91851851851851  3.65885416666674 9.12777777777774  5.15066964285711 10.0277777777778  C 6.64248511904771 10.9277777777777  8.25892857142844 11.3777777777777  10 11.3777777777777  C 11.7410714285716 11.3777777777777  13.3575148809523 10.9277777777777  14.8493303571429 10.0277777777778  Z M 10.3794642857142 2.51111111111112  C 10.483630952381 2.40740740740739  10.5357142857142 2.28148148148148  10.5357142857142 2.13333333333333  C 10.5357142857142 1.98518518518523  10.483630952381 1.8592592592592  10.3794642857142 1.75555555555559  C 10.2752976190477 1.6518518518518  10.1488095238096 1.60000000000002  10 1.60000000000002  C 9.06994047619037 1.60000000000002  8.27194940476193 1.93148148148146  7.60602678571422 2.59444444444443  C 6.94010416666674 3.25740740740741  6.60714285714289 4.05185185185184  6.60714285714289 4.97777777777776  C 6.60714285714289 5.12592592592591  6.65922619047615 5.25185185185182  6.76339285714289 5.35555555555555  C 6.86755952380963 5.45925925925923  6.99404761904771 5.51111111111112  7.14285714285711 5.51111111111112  C 7.29166666666674 5.51111111111112  7.41815476190482 5.45925925925923  7.52232142857156 5.35555555555555  C 7.62648809523807 5.25185185185182  7.67857142857156 5.12592592592591  7.67857142857156 4.97777777777776  C 7.67857142857156 4.34074074074078  7.90550595238096 3.79629629629625  8.359375 3.34444444444443  C 8.81324404761904 2.89259259259262  9.36011904761904 2.66666666666669  10 2.66666666666669  C 10.1488095238096 2.66666666666669  10.2752976190477 2.61481481481479  10.3794642857142 2.51111111111112  Z M 19.7767857142858 5.63333333333333  C 19.9255952380952 5.89259259259262  20 6.14814814814815  20 6.39999999999998  C 20 6.6518518518518  19.9255952380952 6.90740740740739  19.7767857142858 7.16666666666669  C 18.735119047619 8.87037037037038  17.3344494047619 10.2351851851852  15.5747767857142 11.2611111111111  C 13.8151041666667 12.2870370370371  11.9568452380952 12.8  10 12.8  C 8.04315476190482 12.8  6.18489583333326 12.2851851851852  4.42522321428578 11.2555555555556  C 2.66555059523807 10.2259259259259  1.26488095238096 8.86296296296297  0.223214285714221 7.16666666666669  C 0.074404761904816 6.90740740740739  0 6.6518518518518  0 6.39999999999998  C 0 6.14814814814815  0.074404761904816 5.89259259259262  0.223214285714221 5.63333333333333  C 1.26488095238096 3.93703703703704  2.66555059523807 2.57407407407408  4.42522321428578 1.54444444444442  C 6.18489583333326 0.51481481481477  8.04315476190482 0  10 0  C 11.9568452380952 0  13.8151041666667 0.51481481481477  15.5747767857142 1.54444444444442  C 17.3344494047619 2.57407407407408  18.735119047619 3.93703703703704  19.7767857142858 5.63333333333333  Z " fill-rule="nonzero" fill="#999999" stroke="none" transform="matrix(1 0 0 1 1066 297 )" />
  </g>
</svg>