<?xml version="1.0" encoding="utf-8"?>
<svg version="1.1" xmlns:xlink="http://www.w3.org/1999/xlink" width="20px" height="19px" xmlns="http://www.w3.org/2000/svg">
  <g transform="matrix(1 0 0 1 -1066 -320 )">
    <path d="M 15.15625 16.6390625  C 15.3084935897436 16.4873263888888  15.3846153846154 16.3076388888888  15.3846153846154 16.1  C 15.3846153846154 15.8923611111111  15.3084935897436 15.7126736111111  15.15625 15.5609375  C 15.0040064102565 15.4092013888888  14.8237179487179 15.3333333333333  14.6153846153846 15.3333333333333  C 14.4070512820513 15.3333333333333  14.2267628205128 15.4092013888888  14.0745192307693 15.5609375  C 13.9222756410256 15.7126736111111  13.8461538461538 15.8923611111111  13.8461538461538 16.1  C 13.8461538461538 16.3076388888888  13.9222756410256 16.4873263888888  14.0745192307693 16.6390625  C 14.2267628205128 16.7907986111111  14.4070512820513 16.8666666666667  14.6153846153846 16.8666666666667  C 14.8237179487179 16.8666666666667  15.0040064102565 16.7907986111111  15.15625 16.6390625  Z M 18.2331730769231 16.6390625  C 18.3854166666666 16.4873263888888  18.4615384615385 16.3076388888888  18.4615384615385 16.1  C 18.4615384615385 15.8923611111111  18.3854166666666 15.7126736111111  18.2331730769231 15.5609375  C 18.0809294871794 15.4092013888888  17.900641025641 15.3333333333333  17.6923076923077 15.3333333333333  C 17.4839743589744 15.3333333333333  17.3036858974359 15.4092013888888  17.1514423076923 15.5609375  C 16.9991987179487 15.7126736111111  16.9230769230769 15.8923611111111  16.9230769230769 16.1  C 16.9230769230769 16.3076388888888  16.9991987179487 16.4873263888888  17.1514423076923 16.6390625  C 17.3036858974359 16.7907986111111  17.4839743589744 16.8666666666667  17.6923076923077 16.8666666666667  C 17.900641025641 16.8666666666667  18.0809294871794 16.7907986111111  18.2331730769231 16.6390625  Z M 19.6634615384615 12.6020833333333  C 19.8878205128206 12.8256944444444  20 13.0972222222222  20 13.4166666666666  L 20 17.25  C 20 17.5694444444444  19.8878205128206 17.8409722222222  19.6634615384615 18.0645833333333  C 19.4391025641025 18.2881944444444  19.1666666666666 18.4  18.8461538461538 18.4  L 1.15384615384619 18.4  C 0.833333333333371 18.4  0.560897435897459 18.2881944444444  0.336538461538453 18.0645833333333  C 0.112179487179446 17.8409722222222  0 17.5694444444444  0 17.25  L 0 13.4166666666666  C 0 13.0972222222222  0.112179487179446 12.8256944444444  0.336538461538453 12.6020833333333  C 0.560897435897459 12.3784722222222  0.833333333333371 12.2666666666667  1.15384615384619 12.2666666666667  L 6.74278846153845 12.2666666666667  L 8.36538461538464 13.8958333333333  C 8.83012820512818 14.3430555555556  9.375 14.5666666666667  10 14.5666666666667  C 10.625 14.5666666666667  11.1698717948718 14.3430555555556  11.6346153846154 13.8958333333333  L 13.2692307692307 12.2666666666667  L 18.8461538461538 12.2666666666667  C 19.1666666666666 12.2666666666667  19.4391025641025 12.3784722222222  19.6634615384615 12.6020833333333  Z M 15.3846153846154 6.13333333333333  C 15.7211538461538 6.13333333333333  15.9575320512821 6.2890625  16.09375 6.60052083333335  C 16.2299679487179 6.92795138888886  16.1738782051282 7.20746527777777  15.9254807692307 7.43906249999998  L 10.5408653846154 12.8057291666666  C 10.3966346153846 12.9574652777778  10.2163461538462 13.0333333333333  10 13.0333333333333  C 9.78365384615381 13.0333333333333  9.60336538461536 12.9574652777778  9.45913461538464 12.8057291666666  L 4.07451923076928 7.43906249999998  C 3.82612179487182 7.20746527777777  3.7700320512821 6.92795138888886  3.90625 6.60052083333335  C 4.0424679487179 6.2890625  4.27884615384619 6.13333333333333  4.61538461538464 6.13333333333333  L 7.69230769230774 6.13333333333333  L 7.69230769230774 0.766666666666652  C 7.69230769230774 0.559027777777771  7.76842948717945 0.379340277777771  7.92067307692309 0.227604166666652  C 8.07291666666663 0.0758680555555316  8.25320512820508 0  8.46153846153845 0  L 11.5384615384615 0  C 11.7467948717949 0  11.9270833333334 0.0758680555555316  12.0793269230769 0.227604166666652  C 12.2315705128206 0.379340277777771  12.3076923076923 0.559027777777771  12.3076923076923 0.766666666666652  L 12.3076923076923 6.13333333333333  L 15.3846153846154 6.13333333333333  Z " fill-rule="nonzero" fill="#999999" stroke="none" transform="matrix(1 0 0 1 1066 320 )" />
  </g>
</svg>