<?xml version="1.0" encoding="utf-8"?>
<svg version="1.1" xmlns:xlink="http://www.w3.org/1999/xlink" width="223px" height="62px" xmlns="http://www.w3.org/2000/svg">
  <g transform="matrix(1 0 0 1 -1096 -161 )">
    <path d="M 1097 165  A 3 3 0 0 1 1100 162 L 1315 162  A 3 3 0 0 1 1318 165 L 1318 219  A 3 3 0 0 1 1315 222 L 1100 222  A 3 3 0 0 1 1097 219 L 1097 165  Z " fill-rule="nonzero" fill="#ff3399" stroke="none" fill-opacity="0.0980392156862745" />
    <path d="M 1096.5 165  A 3.5 3.5 0 0 1 1100 161.5 L 1315 161.5  A 3.5 3.5 0 0 1 1318.5 165 L 1318.5 219  A 3.5 3.5 0 0 1 1315 222.5 L 1100 222.5  A 3.5 3.5 0 0 1 1096.5 219 L 1096.5 165  Z " stroke-width="1" stroke-dasharray="9,4" stroke="#ff3399" fill="none" stroke-dashoffset="0.5" />
  </g>
</svg>