<?xml version="1.0" encoding="utf-8"?>
<svg version="1.1" xmlns:xlink="http://www.w3.org/1999/xlink" width="200px" height="200px" xmlns="http://www.w3.org/2000/svg">
  <g transform="matrix(1 0 0 1 -1059 -298 )">
    <path d="M 1059 298  L 1259 298  L 1259 498  L 1059 498  L 1059 298  " fill-rule="nonzero" fill="#cccccc" stroke="none" />
    <path d="M 1073 312  L 1245 312  L 1245 484  L 1073 484  L 1073 312  " fill-rule="nonzero" fill="#ffffff" stroke="none" />
    <path d="M 1178 358  C 1169.6 358  1163 351.4  1163 343  C 1163 334.6  1169.6 328  1178 328  C 1186.4 328  1193 334.6  1193 343  C 1193 351.4  1186.4 358  1178 358  " fill-rule="nonzero" fill="#cccccc" stroke="none" />
    <path d="M 1078 479  L 1078 389.9  L 1118.5 349.4  L 1175.2 381.8  L 1207.6 373.7  L 1240 381.8  L 1240 479  L 1078 479  " fill-rule="nonzero" fill="#169bd5" stroke="none" />
  </g>
</svg>