<?xml version="1.0" encoding="utf-8"?>
<svg version="1.1" xmlns:xlink="http://www.w3.org/1999/xlink" width="43px" height="55px" xmlns="http://www.w3.org/2000/svg">
  <g transform="matrix(1 0 0 1 -868 -484 )">
    <path d="M 11.4371448863636 39.5772879464286  C 11.6305634469697 39.7716703869048  11.7272727272727 40.0018601190476  11.7272727272727 40.2678571428571  L 11.7272727272727 42.2321428571429  C 11.7272727272727 42.4981398809524  11.6305634469697 42.7283296130952  11.4371448863636 42.9227120535714  C 11.2437263257576 43.1170944940476  11.014678030303 43.2142857142857  10.75 43.2142857142857  L 8.7954545454545 43.2142857142857  C 8.5307765151515 43.2142857142857  8.301728219697 43.1170944940476  8.10830965909088 42.9227120535714  C 7.91489109848487 42.7283296130952  7.81818181818187 42.4981398809524  7.81818181818187 42.2321428571429  L 7.81818181818187 40.2678571428571  C 7.81818181818187 40.0018601190476  7.91489109848487 39.7716703869048  8.10830965909088 39.5772879464286  C 8.301728219697 39.3829055059524  8.5307765151515 39.2857142857143  8.7954545454545 39.2857142857143  L 10.75 39.2857142857143  C 11.014678030303 39.2857142857143  11.2437263257576 39.3829055059524  11.4371448863636 39.5772879464286  Z M 11.4371448863636 31.7201450892857  C 11.6305634469697 31.9145275297619  11.7272727272727 32.1447172619048  11.7272727272727 32.4107142857143  L 11.7272727272727 34.375  C 11.7272727272727 34.6409970238095  11.6305634469697 34.8711867559524  11.4371448863636 35.0655691964286  C 11.2437263257576 35.2599516369048  11.014678030303 35.3571428571429  10.75 35.3571428571429  L 8.7954545454545 35.3571428571429  C 8.5307765151515 35.3571428571429  8.301728219697 35.2599516369048  8.10830965909088 35.0655691964286  C 7.91489109848487 34.8711867559524  7.81818181818187 34.6409970238095  7.81818181818187 34.375  L 7.81818181818187 32.4107142857143  C 7.81818181818187 32.1447172619048  7.91489109848487 31.9145275297619  8.10830965909088 31.7201450892857  C 8.301728219697 31.5257626488095  8.5307765151515 31.4285714285714  8.7954545454545 31.4285714285714  L 10.75 31.4285714285714  C 11.014678030303 31.4285714285714  11.2437263257576 31.5257626488095  11.4371448863636 31.7201450892857  Z M 19.2553267045455 31.7201450892857  C 19.4487452651515 31.9145275297619  19.5454545454545 32.1447172619048  19.5454545454545 32.4107142857143  L 19.5454545454545 34.375  C 19.5454545454545 34.6409970238095  19.4487452651515 34.8711867559524  19.2553267045455 35.0655691964286  C 19.0619081439394 35.2599516369048  18.8328598484849 35.3571428571429  18.5681818181819 35.3571428571429  L 16.6136363636364 35.3571428571429  C 16.3489583333334 35.3571428571429  16.1199100378788 35.2599516369048  15.9264914772727 35.0655691964286  C 15.7330729166666 34.8711867559524  15.6363636363636 34.6409970238095  15.6363636363636 34.375  L 15.6363636363636 32.4107142857143  C 15.6363636363636 32.1447172619048  15.7330729166666 31.9145275297619  15.9264914772727 31.7201450892857  C 16.1199100378788 31.5257626488095  16.3489583333334 31.4285714285714  16.6136363636364 31.4285714285714  L 18.5681818181819 31.4285714285714  C 18.8328598484849 31.4285714285714  19.0619081439394 31.5257626488095  19.2553267045455 31.7201450892857  Z M 11.4371448863636 23.8630022321429  C 11.6305634469697 24.057384672619  11.7272727272727 24.2875744047619  11.7272727272727 24.5535714285714  L 11.7272727272727 26.5178571428571  C 11.7272727272727 26.7838541666667  11.6305634469697 27.0140438988095  11.4371448863636 27.2084263392857  C 11.2437263257576 27.4028087797619  11.014678030303 27.5  10.75 27.5  L 8.7954545454545 27.5  C 8.5307765151515 27.5  8.301728219697 27.4028087797619  8.10830965909088 27.2084263392857  C 7.91489109848487 27.0140438988095  7.81818181818187 26.7838541666667  7.81818181818187 26.5178571428571  L 7.81818181818187 24.5535714285714  C 7.81818181818187 24.2875744047619  7.91489109848487 24.057384672619  8.10830965909088 23.8630022321429  C 8.301728219697 23.6686197916667  8.5307765151515 23.5714285714286  8.7954545454545 23.5714285714286  L 10.75 23.5714285714286  C 11.014678030303 23.5714285714286  11.2437263257576 23.6686197916667  11.4371448863636 23.8630022321429  Z M 34.8916903409091 39.5772879464286  C 35.0851089015151 39.7716703869048  35.1818181818182 40.0018601190476  35.1818181818182 40.2678571428571  L 35.1818181818182 42.2321428571429  C 35.1818181818182 42.4981398809524  35.0851089015151 42.7283296130952  34.8916903409091 42.9227120535714  C 34.698271780303 43.1170944940476  34.4692234848485 43.2142857142857  34.2045454545455 43.2142857142857  L 32.25 43.2142857142857  C 31.985321969697 43.2142857142857  31.7562736742424 43.1170944940476  31.5628551136364 42.9227120535714  C 31.3694365530303 42.7283296130952  31.2727272727272 42.4981398809524  31.2727272727272 42.2321428571429  L 31.2727272727272 40.2678571428571  C 31.2727272727272 40.0018601190476  31.3694365530303 39.7716703869048  31.5628551136364 39.5772879464286  C 31.7562736742424 39.3829055059524  31.985321969697 39.2857142857143  32.25 39.2857142857143  L 34.2045454545455 39.2857142857143  C 34.4692234848485 39.2857142857143  34.698271780303 39.3829055059524  34.8916903409091 39.5772879464286  Z M 27.0735085227272 31.7201450892857  C 27.2669270833334 31.9145275297619  27.3636363636364 32.1447172619048  27.3636363636364 32.4107142857143  L 27.3636363636364 34.375  C 27.3636363636364 34.6409970238095  27.2669270833334 34.8711867559524  27.0735085227272 35.0655691964286  C 26.8800899621212 35.2599516369048  26.6510416666666 35.3571428571429  26.3863636363636 35.3571428571429  L 24.4318181818181 35.3571428571429  C 24.1671401515151 35.3571428571429  23.9380918560606 35.2599516369048  23.7446732954545 35.0655691964286  C 23.5512547348485 34.8711867559524  23.4545454545455 34.6409970238095  23.4545454545455 34.375  L 23.4545454545455 32.4107142857143  C 23.4545454545455 32.1447172619048  23.5512547348485 31.9145275297619  23.7446732954545 31.7201450892857  C 23.9380918560606 31.5257626488095  24.1671401515151 31.4285714285714  24.4318181818181 31.4285714285714  L 26.3863636363636 31.4285714285714  C 26.6510416666666 31.4285714285714  26.8800899621212 31.5257626488095  27.0735085227272 31.7201450892857  Z M 19.2553267045455 23.8630022321429  C 19.4487452651515 24.057384672619  19.5454545454545 24.2875744047619  19.5454545454545 24.5535714285714  L 19.5454545454545 26.5178571428571  C 19.5454545454545 26.7838541666667  19.4487452651515 27.0140438988095  19.2553267045455 27.2084263392857  C 19.0619081439394 27.4028087797619  18.8328598484849 27.5  18.5681818181819 27.5  L 16.6136363636364 27.5  C 16.3489583333334 27.5  16.1199100378788 27.4028087797619  15.9264914772727 27.2084263392857  C 15.7330729166666 27.0140438988095  15.6363636363636 26.7838541666667  15.6363636363636 26.5178571428571  L 15.6363636363636 24.5535714285714  C 15.6363636363636 24.2875744047619  15.7330729166666 24.057384672619  15.9264914772727 23.8630022321429  C 16.1199100378788 23.6686197916667  16.3489583333334 23.5714285714286  16.6136363636364 23.5714285714286  L 18.5681818181819 23.5714285714286  C 18.8328598484849 23.5714285714286  19.0619081439394 23.6686197916667  19.2553267045455 23.8630022321429  Z M 11.4371448863636 16.005859375  C 11.6305634469697 16.2002418154762  11.7272727272727 16.430431547619  11.7272727272727 16.6964285714286  L 11.7272727272727 18.6607142857143  C 11.7272727272727 18.9267113095238  11.6305634469697 19.1569010416667  11.4371448863636 19.3512834821429  C 11.2437263257576 19.545665922619  11.014678030303 19.6428571428571  10.75 19.6428571428571  L 8.7954545454545 19.6428571428571  C 8.5307765151515 19.6428571428571  8.301728219697 19.545665922619  8.10830965909088 19.3512834821429  C 7.91489109848487 19.1569010416667  7.81818181818187 18.9267113095238  7.81818181818187 18.6607142857143  L 7.81818181818187 16.6964285714286  C 7.81818181818187 16.430431547619  7.91489109848487 16.2002418154762  8.10830965909088 16.005859375  C 8.301728219697 15.8114769345238  8.5307765151515 15.7142857142857  8.7954545454545 15.7142857142857  L 10.75 15.7142857142857  C 11.014678030303 15.7142857142857  11.2437263257576 15.8114769345238  11.4371448863636 16.005859375  Z M 34.8916903409091 31.7201450892857  C 35.0851089015151 31.9145275297619  35.1818181818182 32.1447172619048  35.1818181818182 32.4107142857143  L 35.1818181818182 34.375  C 35.1818181818182 34.6409970238095  35.0851089015151 34.8711867559524  34.8916903409091 35.0655691964286  C 34.698271780303 35.2599516369048  34.4692234848485 35.3571428571429  34.2045454545455 35.3571428571429  L 32.25 35.3571428571429  C 31.985321969697 35.3571428571429  31.7562736742424 35.2599516369048  31.5628551136364 35.0655691964286  C 31.3694365530303 34.8711867559524  31.2727272727272 34.6409970238095  31.2727272727272 34.375  L 31.2727272727272 32.4107142857143  C 31.2727272727272 32.1447172619048  31.3694365530303 31.9145275297619  31.5628551136364 31.7201450892857  C 31.7562736742424 31.5257626488095  31.985321969697 31.4285714285714  32.25 31.4285714285714  L 34.2045454545455 31.4285714285714  C 34.4692234848485 31.4285714285714  34.698271780303 31.5257626488095  34.8916903409091 31.7201450892857  Z M 27.0735085227272 23.8630022321429  C 27.2669270833334 24.057384672619  27.3636363636364 24.2875744047619  27.3636363636364 24.5535714285714  L 27.3636363636364 26.5178571428571  C 27.3636363636364 26.7838541666667  27.2669270833334 27.0140438988095  27.0735085227272 27.2084263392857  C 26.8800899621212 27.4028087797619  26.6510416666666 27.5  26.3863636363636 27.5  L 24.4318181818181 27.5  C 24.1671401515151 27.5  23.9380918560606 27.4028087797619  23.7446732954545 27.2084263392857  C 23.5512547348485 27.0140438988095  23.4545454545455 26.7838541666667  23.4545454545455 26.5178571428571  L 23.4545454545455 24.5535714285714  C 23.4545454545455 24.2875744047619  23.5512547348485 24.057384672619  23.7446732954545 23.8630022321429  C 23.9380918560606 23.6686197916667  24.1671401515151 23.5714285714286  24.4318181818181 23.5714285714286  L 26.3863636363636 23.5714285714286  C 26.6510416666666 23.5714285714286  26.8800899621212 23.6686197916667  27.0735085227272 23.8630022321429  Z M 19.2553267045455 16.005859375  C 19.4487452651515 16.2002418154762  19.5454545454545 16.430431547619  19.5454545454545 16.6964285714286  L 19.5454545454545 18.6607142857143  C 19.5454545454545 18.9267113095238  19.4487452651515 19.1569010416667  19.2553267045455 19.3512834821429  C 19.0619081439394 19.545665922619  18.8328598484849 19.6428571428571  18.5681818181819 19.6428571428571  L 16.6136363636364 19.6428571428571  C 16.3489583333334 19.6428571428571  16.1199100378788 19.545665922619  15.9264914772727 19.3512834821429  C 15.7330729166666 19.1569010416667  15.6363636363636 18.9267113095238  15.6363636363636 18.6607142857143  L 15.6363636363636 16.6964285714286  C 15.6363636363636 16.430431547619  15.7330729166666 16.2002418154762  15.9264914772727 16.005859375  C 16.1199100378788 15.8114769345238  16.3489583333334 15.7142857142857  16.6136363636364 15.7142857142857  L 18.5681818181819 15.7142857142857  C 18.8328598484849 15.7142857142857  19.0619081439394 15.8114769345238  19.2553267045455 16.005859375  Z M 11.4371448863636 8.14871651785717  C 11.6305634469697 8.34309895833331  11.7272727272727 8.5732886904762  11.7272727272727 8.83928571428572  L 11.7272727272727 10.8035714285714  C 11.7272727272727 11.069568452381  11.6305634469697 11.2997581845238  11.4371448863636 11.494140625  C 11.2437263257576 11.6885230654762  11.014678030303 11.7857142857143  10.75 11.7857142857143  L 8.7954545454545 11.7857142857143  C 8.5307765151515 11.7857142857143  8.301728219697 11.6885230654762  8.10830965909088 11.494140625  C 7.91489109848487 11.2997581845238  7.81818181818187 11.069568452381  7.81818181818187 10.8035714285714  L 7.81818181818187 8.83928571428572  C 7.81818181818187 8.5732886904762  7.91489109848487 8.34309895833331  8.10830965909088 8.14871651785717  C 8.301728219697 7.95433407738096  8.5307765151515 7.85714285714283  8.7954545454545 7.85714285714283  L 10.75 7.85714285714283  C 11.014678030303 7.85714285714283  11.2437263257576 7.95433407738096  11.4371448863636 8.14871651785717  Z M 34.8916903409091 23.8630022321429  C 35.0851089015151 24.057384672619  35.1818181818182 24.2875744047619  35.1818181818182 24.5535714285714  L 35.1818181818182 26.5178571428571  C 35.1818181818182 26.7838541666667  35.0851089015151 27.0140438988095  34.8916903409091 27.2084263392857  C 34.698271780303 27.4028087797619  34.4692234848485 27.5  34.2045454545455 27.5  L 32.25 27.5  C 31.985321969697 27.5  31.7562736742424 27.4028087797619  31.5628551136364 27.2084263392857  C 31.3694365530303 27.0140438988095  31.2727272727272 26.7838541666667  31.2727272727272 26.5178571428571  L 31.2727272727272 24.5535714285714  C 31.2727272727272 24.2875744047619  31.3694365530303 24.057384672619  31.5628551136364 23.8630022321429  C 31.7562736742424 23.6686197916667  31.985321969697 23.5714285714286  32.25 23.5714285714286  L 34.2045454545455 23.5714285714286  C 34.4692234848485 23.5714285714286  34.698271780303 23.6686197916667  34.8916903409091 23.8630022321429  Z M 27.0735085227272 16.005859375  C 27.2669270833334 16.2002418154762  27.3636363636364 16.430431547619  27.3636363636364 16.6964285714286  L 27.3636363636364 18.6607142857143  C 27.3636363636364 18.9267113095238  27.2669270833334 19.1569010416667  27.0735085227272 19.3512834821429  C 26.8800899621212 19.545665922619  26.6510416666666 19.6428571428571  26.3863636363636 19.6428571428571  L 24.4318181818181 19.6428571428571  C 24.1671401515151 19.6428571428571  23.9380918560606 19.545665922619  23.7446732954545 19.3512834821429  C 23.5512547348485 19.1569010416667  23.4545454545455 18.9267113095238  23.4545454545455 18.6607142857143  L 23.4545454545455 16.6964285714286  C 23.4545454545455 16.430431547619  23.5512547348485 16.2002418154762  23.7446732954545 16.005859375  C 23.9380918560606 15.8114769345238  24.1671401515151 15.7142857142857  24.4318181818181 15.7142857142857  L 26.3863636363636 15.7142857142857  C 26.6510416666666 15.7142857142857  26.8800899621212 15.8114769345238  27.0735085227272 16.005859375  Z M 19.2553267045455 8.14871651785717  C 19.4487452651515 8.34309895833331  19.5454545454545 8.5732886904762  19.5454545454545 8.83928571428572  L 19.5454545454545 10.8035714285714  C 19.5454545454545 11.069568452381  19.4487452651515 11.2997581845238  19.2553267045455 11.494140625  C 19.0619081439394 11.6885230654762  18.8328598484849 11.7857142857143  18.5681818181819 11.7857142857143  L 16.6136363636364 11.7857142857143  C 16.3489583333334 11.7857142857143  16.1199100378788 11.6885230654762  15.9264914772727 11.494140625  C 15.7330729166666 11.2997581845238  15.6363636363636 11.069568452381  15.6363636363636 10.8035714285714  L 15.6363636363636 8.83928571428572  C 15.6363636363636 8.5732886904762  15.7330729166666 8.34309895833331  15.9264914772727 8.14871651785717  C 16.1199100378788 7.95433407738096  16.3489583333334 7.85714285714283  16.6136363636364 7.85714285714283  L 18.5681818181819 7.85714285714283  C 18.8328598484849 7.85714285714283  19.0619081439394 7.95433407738096  19.2553267045455 8.14871651785717  Z M 34.8916903409091 16.005859375  C 35.0851089015151 16.2002418154762  35.1818181818182 16.430431547619  35.1818181818182 16.6964285714286  L 35.1818181818182 18.6607142857143  C 35.1818181818182 18.9267113095238  35.0851089015151 19.1569010416667  34.8916903409091 19.3512834821429  C 34.698271780303 19.545665922619  34.4692234848485 19.6428571428571  34.2045454545455 19.6428571428571  L 32.25 19.6428571428571  C 31.985321969697 19.6428571428571  31.7562736742424 19.545665922619  31.5628551136364 19.3512834821429  C 31.3694365530303 19.1569010416667  31.2727272727272 18.9267113095238  31.2727272727272 18.6607142857143  L 31.2727272727272 16.6964285714286  C 31.2727272727272 16.430431547619  31.3694365530303 16.2002418154762  31.5628551136364 16.005859375  C 31.7562736742424 15.8114769345238  31.985321969697 15.7142857142857  32.25 15.7142857142857  L 34.2045454545455 15.7142857142857  C 34.4692234848485 15.7142857142857  34.698271780303 15.8114769345238  34.8916903409091 16.005859375  Z M 27.0735085227272 8.14871651785717  C 27.2669270833334 8.34309895833331  27.3636363636364 8.5732886904762  27.3636363636364 8.83928571428572  L 27.3636363636364 10.8035714285714  C 27.3636363636364 11.069568452381  27.2669270833334 11.2997581845238  27.0735085227272 11.494140625  C 26.8800899621212 11.6885230654762  26.6510416666666 11.7857142857143  26.3863636363636 11.7857142857143  L 24.4318181818181 11.7857142857143  C 24.1671401515151 11.7857142857143  23.9380918560606 11.6885230654762  23.7446732954545 11.494140625  C 23.5512547348485 11.2997581845238  23.4545454545455 11.069568452381  23.4545454545455 10.8035714285714  L 23.4545454545455 8.83928571428572  C 23.4545454545455 8.5732886904762  23.5512547348485 8.34309895833331  23.7446732954545 8.14871651785717  C 23.9380918560606 7.95433407738096  24.1671401515151 7.85714285714283  24.4318181818181 7.85714285714283  L 26.3863636363636 7.85714285714283  C 26.6510416666666 7.85714285714283  26.8800899621212 7.95433407738096  27.0735085227272 8.14871651785717  Z M 34.8916903409091 8.14871651785717  C 35.0851089015151 8.34309895833331  35.1818181818182 8.5732886904762  35.1818181818182 8.83928571428572  L 35.1818181818182 10.8035714285714  C 35.1818181818182 11.069568452381  35.0851089015151 11.2997581845238  34.8916903409091 11.494140625  C 34.698271780303 11.6885230654762  34.4692234848485 11.7857142857143  34.2045454545455 11.7857142857143  L 32.25 11.7857142857143  C 31.985321969697 11.7857142857143  31.7562736742424 11.6885230654762  31.5628551136364 11.494140625  C 31.3694365530303 11.2997581845238  31.2727272727272 11.069568452381  31.2727272727272 10.8035714285714  L 31.2727272727272 8.83928571428572  C 31.2727272727272 8.5732886904762  31.3694365530303 8.34309895833331  31.5628551136364 8.14871651785717  C 31.7562736742424 7.95433407738096  31.985321969697 7.85714285714283  32.25 7.85714285714283  L 34.2045454545455 7.85714285714283  C 34.4692234848485 7.85714285714283  34.698271780303 7.95433407738096  34.8916903409091 8.14871651785717  Z M 27.3636363636364 44.1964285714286  L 27.3636363636364 51  L 39 51  L 39 4  L 4 4  L 4 51  L 15.6363636363636 51  L 15.6363636363636 44.1964285714286  C 15.6363636363636 43.930431547619  15.7330729166666 43.7002418154761  15.9264914772727 43.505859375  C 16.1199100378788 43.3114769345239  16.3489583333334 43.2142857142857  16.6136363636364 43.2142857142857  L 26.3863636363636 43.2142857142857  C 26.6510416666666 43.2142857142857  26.8800899621212 43.3114769345239  27.0735085227272 43.505859375  C 27.2669270833334 43.7002418154761  27.3636363636364 43.930431547619  27.3636363636364 44.1964285714286  Z M 42.4197443181818 0.583147321428555  C 42.806581439394 0.971912202380963  43 1.43229166666669  43 1.96428571428572  L 43 53.0357142857143  C 43 53.5677083333334  42.806581439394 54.028087797619  42.4197443181818 54.4168526785714  C 42.0329071969697 54.8056175595239  41.5748106060606 55  41.0454545454545 55  L 1.9545454545455 55  C 1.42518939393938 55  0.967092803030255 54.8056175595239  0.58025568181813 54.4168526785714  C 0.193418560606005 54.028087797619  0 53.5677083333334  0 53.0357142857143  L 0 1.96428571428572  C 0 1.43229166666669  0.193418560606005 0.971912202380963  0.58025568181813 0.583147321428555  C 0.967092803030255 0.194382440476204  1.42518939393938 0  1.9545454545455 0  L 41.0454545454545 0  C 41.5748106060606 0  42.0329071969697 0.194382440476204  42.4197443181818 0.583147321428555  Z " fill-rule="nonzero" fill="#ffffff" stroke="none" transform="matrix(1 0 0 1 868 484 )" />
  </g>
</svg>