<?xml version="1.0" encoding="utf-8"?>
<svg version="1.1" xmlns:xlink="http://www.w3.org/1999/xlink" width="163px" height="43px" xmlns="http://www.w3.org/2000/svg">
  <g transform="matrix(1 0 0 1 -1009 -606 )">
    <path d="M 1010 610  A 3 3 0 0 1 1013 607 L 1168 607  A 3 3 0 0 1 1171 610 L 1171 645  A 3 3 0 0 1 1168 648 L 1013 648  A 3 3 0 0 1 1010 645 L 1010 610  Z " fill-rule="nonzero" fill="#ff3399" stroke="none" fill-opacity="0.0980392156862745" />
    <path d="M 1009.5 610  A 3.5 3.5 0 0 1 1013 606.5 L 1168 606.5  A 3.5 3.5 0 0 1 1171.5 610 L 1171.5 645  A 3.5 3.5 0 0 1 1168 648.5 L 1013 648.5  A 3.5 3.5 0 0 1 1009.5 645 L 1009.5 610  Z " stroke-width="1" stroke-dasharray="9,4" stroke="#ff3399" fill="none" stroke-dashoffset="0.5" />
  </g>
</svg>