<?xml version="1.0" encoding="utf-8"?>
<svg version="1.1" xmlns:xlink="http://www.w3.org/1999/xlink" width="48px" height="48px" xmlns="http://www.w3.org/2000/svg">
  <g transform="matrix(1 0 0 1 -724 -577 )">
    <path d="M 729 593  A 11 11 0 0 1 740 582 L 756 582  A 11 11 0 0 1 767 593 L 767 609  A 11 11 0 0 1 756 620 L 740 620  A 11 11 0 0 1 729 609 L 729 593  Z " fill-rule="nonzero" fill="#7ab7e9" stroke="none" fill-opacity="0.4" />
    <path d="M 726.5 593  A 13.5 13.5 0 0 1 740 579.5 L 756 579.5  A 13.5 13.5 0 0 1 769.5 593 L 769.5 609  A 13.5 13.5 0 0 1 756 622.5 L 740 622.5  A 13.5 13.5 0 0 1 726.5 609 L 726.5 593  Z " stroke-width="5" stroke-dasharray="15,5" stroke="#7ab7e9" fill="none" stroke-dashoffset="0.5" />
  </g>
</svg>