<?xml version="1.0" encoding="utf-8"?>
<svg version="1.1" xmlns:xlink="http://www.w3.org/1999/xlink" width="198px" height="106px" xmlns="http://www.w3.org/2000/svg">
  <g transform="matrix(1 0 0 1 -652 -548 )">
    <path d="M 654 562  A 12 12 0 0 1 666 550 L 836 550  A 12 12 0 0 1 848 562 L 848 640  A 12 12 0 0 1 836 652 L 666 652  A 12 12 0 0 1 654 640 L 654 562  Z " fill-rule="nonzero" fill="#7ab7e9" stroke="none" fill-opacity="0" />
    <path d="M 653 562  A 13 13 0 0 1 666 549 L 836 549  A 13 13 0 0 1 849 562 L 849 640  A 13 13 0 0 1 836 653 L 666 653  A 13 13 0 0 1 653 640 L 653 562  Z " stroke-width="2" stroke-dasharray="18,8" stroke="#7ab7e9" fill="none" />
  </g>
</svg>