<?xml version="1.0" encoding="utf-8"?>
<svg version="1.1" xmlns:xlink="http://www.w3.org/1999/xlink" width="222px" height="126px" xmlns="http://www.w3.org/2000/svg">
  <g transform="matrix(1 0 0 1 -640 -538 )">
    <path d="M 642 558  A 18 18 0 0 1 660 540 L 842 540  A 18 18 0 0 1 860 558 L 860 644  A 18 18 0 0 1 842 662 L 660 662  A 18 18 0 0 1 642 644 L 642 558  Z " fill-rule="nonzero" fill="#7ab7e9" stroke="none" fill-opacity="0.4" />
    <path d="M 641 558  A 19 19 0 0 1 660 539 L 842 539  A 19 19 0 0 1 861 558 L 861 644  A 19 19 0 0 1 842 663 L 660 663  A 19 19 0 0 1 641 644 L 641 558  Z " stroke-width="2" stroke-dasharray="18,8" stroke="#7ab7e9" fill="none" />
  </g>
</svg>