<?xml version="1.0" encoding="utf-8"?>
<svg version="1.1" xmlns:xlink="http://www.w3.org/1999/xlink" width="37px" height="40px" xmlns="http://www.w3.org/2000/svg">
  <g transform="matrix(1 0 0 1 -726 -585 )">
    <path d="M 36.6903750614995 13.6458333333333  C 36.8967916871666 13.8541666666667  37 14.1203703703703  37 14.4444444444445  L 37 16.6666666666666  C 37 16.9907407407408  36.8967916871666 17.2569444444445  36.6903750614995 17.4652777777777  C 36.4839584358324 17.6736111111111  36.2202038585912 17.7777777777777  35.8991113297757 18  L 23.7893359573089 18  L 23.7893359573089 30  C 23.7893359573089 30.3240740740741  23.6861276444755 30.5902777777777  23.4797110188085 30.7986111111111  C 23.2732943931414 31.0069444444445  23.0095398159003 31.1111111111111  22.6884472870848 31.1111111111111  L 20.4866699466363 31.1111111111111  C 20.1655774178209 31.1111111111111  19.9018228405797 31.0069444444445  19.6954062149126 30.7986111111111  C 19.4889895892455 30.5902777777777  19.3857812764121 30.3240740740741  19.3857812764121 30  L 19.3857812764121 22.4000000057633  L 19.3857812764121 18  L 7.27600590394536 18  C 6.95491337512988 17.7777777777777  6.69115879788876 17.6736111111111  6.48474217222167 17.4652777777777  C 6.27832554655458 17.2569444444445  6.17511723372104 16.9907407407408  6.17511723372104 16.6666666666666  L 6.17511723372104 14.4444444444445  C 6.17511723372104 14.1203703703703  6.27832554655458 13.8541666666667  6.48474217222167 13.6458333333333  C 6.69115879788876 13.4375  6.95491337512988 13.3333333333333  7.27600590394536 14  L 19 14  L 19 1.11111111111109  C 19.3857812764121 0.787037037037067  19.4889895892455 0.520833333333258  19.6954062149126 0.3125  C 19.9018228405797 0.104166666666742  20.1655774178209 0  20.4866699466363 0  L 22.6884472870848 0  C 23.0095398159003 0  23.2732943931414 0.104166666666742  23.4797110188085 0.3125  C 23.6861276444755 0.520833333333258  23.7893359573089 0.787037037037067  23.7893359573089 1.11111111111109  L 23.7893359573089 14  L 35.8991113297757 14  C 36.2202038585912 13.3333333333333  36.4839584358324 13.4375  36.6903750614995 13.6458333333333  Z M 3.38849278721591 33.9236111111111  C 4.46644627681053 35.0115740740741  1.77156255282409 30  1.77156255282409 30  C 1.77156255282409 31.5277777777777  2.3105392976214 32.835648148148  3.38849278721591 33.9236111111111  Z M 0.275042016737984 37.0659722222222  C -1.66298074646932 35.1099537037037  7.27600590394536 40  7.27600590394536 40  C 4.54671940901437 40  2.21306477994517 39.0219907407406  0.275042016737984 37.0659722222222  Z " fill-rule="nonzero" fill="#7ab7e9" stroke="none" transform="matrix(1 0 0 1 726 585 )" />
  </g>
</svg>