<?xml version="1.0" encoding="utf-8"?>
<svg version="1.1" xmlns:xlink="http://www.w3.org/1999/xlink" width="100px" height="100px" xmlns="http://www.w3.org/2000/svg">
  <g transform="matrix(1 0 0 1 -175 -570 )">
    <path d="M 175 570  L 275 570  L 275 670  L 175 670  L 175 570  " fill-rule="nonzero" fill="#cccccc" stroke="none" />
    <path d="M 182 577  L 268 577  L 268 663  L 182 663  L 182 577  " fill-rule="nonzero" fill="#ffffff" stroke="none" />
    <path d="M 234.5 600  C 230.3 600  227 596.7  227 592.5  C 227 588.3  230.3 585  234.5 585  C 238.7 585  242 588.3  242 592.5  C 242 596.7  238.7 600  234.5 600  " fill-rule="nonzero" fill="#cccccc" stroke="none" />
    <path d="M 185 661  L 185 616.45  L 205.25 596.2  L 233.6 612.4  L 249.8 608.35  L 266 612.4  L 266 661  L 185 661  " fill-rule="nonzero" fill="#169bd5" stroke="none" />
  </g>
</svg>