<?xml version="1.0" encoding="utf-8"?>
<svg version="1.1" xmlns:xlink="http://www.w3.org/1999/xlink" width="127px" height="50px" xmlns="http://www.w3.org/2000/svg">
  <g transform="matrix(1 0 0 1 -894 -874 )">
    <path d="M 894 874  L 1021 874  L 1021 924  L 894 924  L 894 874  " fill-rule="nonzero" fill="#cccccc" stroke="none" />
    <path d="M 898 878  L 1017 878  L 1017 920  L 898 920  L 898 878  " fill-rule="nonzero" fill="#ffffff" stroke="none" />
    <path d="M 963.79 889  C 961.69 889  960.04 887.35  960.04 885.25  C 960.04 883.15  961.69 881.5  963.79 881.5  C 965.89 881.5  967.54 883.15  967.54 885.25  C 967.54 887.35  965.89 889  963.79 889  " fill-rule="nonzero" fill="#cccccc" stroke="none" />
    <path d="M 900 919  L 900 897.55  L 929 887.8  L 969.6 909.787401574803  L 992.8 893.65  L 1016 909.787401574803  L 1016 919  L 900 919  " fill-rule="nonzero" fill="#169bd5" stroke="none" />
  </g>
</svg>