<?xml version="1.0" encoding="utf-8"?>
<svg version="1.1" xmlns:xlink="http://www.w3.org/1999/xlink" width="230px" height="130px" xmlns="http://www.w3.org/2000/svg">
  <g transform="matrix(1 0 0 1 -314 -244 )">
    <path d="M 314 244  L 544 244  L 544 374  L 314 374  L 314 244  " fill-rule="nonzero" fill="#cccccc" stroke="none" />
    <path d="M 323 253  L 535 253  L 535 365  L 323 365  L 323 253  " fill-rule="nonzero" fill="#ffffff" stroke="none" />
    <path d="M 443.35 283  C 437.89 283  433.6 278.71  433.6 273.25  C 433.6 267.79  437.89 263.5  443.35 263.5  C 448.81 263.5  453.1 267.79  453.1 273.25  C 453.1 278.71  448.81 283  443.35 283  " fill-rule="nonzero" fill="#cccccc" stroke="none" />
    <path d="M 327 362  L 327 304.25  L 378.25 278  L 450 326.391304347826  L 491 293.75  L 532 326.391304347826  L 532 362  L 327 362  " fill-rule="nonzero" fill="#169bd5" stroke="none" />
  </g>
</svg>