<?xml version="1.0" encoding="utf-8"?>
<svg version="1.1" xmlns:xlink="http://www.w3.org/1999/xlink" width="217px" height="217px" xmlns="http://www.w3.org/2000/svg">
  <g transform="matrix(1 0 0 1 -931 -143 )">
    <path d="M 931 143  L 1148 143  L 1148 360  L 931 360  L 931 143  " fill-rule="nonzero" fill="#cccccc" stroke="none" />
    <path d="M 946 158  L 1133 158  L 1133 345  L 946 345  L 946 158  " fill-rule="nonzero" fill="#ffffff" stroke="none" />
    <path d="M 1060.115 208.1  C 1051.001 208.1  1043.84 200.939  1043.84 191.825  C 1043.84 182.711  1051.001 175.55  1060.115 175.55  C 1069.229 175.55  1076.39 182.711  1076.39 191.825  C 1076.39 200.939  1069.229 208.1  1060.115 208.1  " fill-rule="nonzero" fill="#cccccc" stroke="none" />
    <path d="M 952 340  L 952 243.2  L 996 199.2  L 1057.6 234.4  L 1092.8 225.6  L 1128 234.4  L 1128 340  L 952 340  " fill-rule="nonzero" fill="#169bd5" stroke="none" />
  </g>
</svg>