<?xml version="1.0" encoding="utf-8"?>
<svg version="1.1" xmlns:xlink="http://www.w3.org/1999/xlink" width="161px" height="68px" xmlns="http://www.w3.org/2000/svg">
  <g transform="matrix(1 0 0 1 -1063 -148 )">
    <path d="M 1064 152  A 3 3 0 0 1 1067 149 L 1220 149  A 3 3 0 0 1 1223 152 L 1223 212  A 3 3 0 0 1 1220 215 L 1067 215  A 3 3 0 0 1 1064 212 L 1064 152  Z " fill-rule="nonzero" fill="#ff3399" stroke="none" fill-opacity="0.0980392156862745" />
    <path d="M 1063.5 152  A 3.5 3.5 0 0 1 1067 148.5 L 1220 148.5  A 3.5 3.5 0 0 1 1223.5 152 L 1223.5 212  A 3.5 3.5 0 0 1 1220 215.5 L 1067 215.5  A 3.5 3.5 0 0 1 1063.5 212 L 1063.5 152  Z " stroke-width="1" stroke-dasharray="9,4" stroke="#ff3399" fill="none" stroke-dashoffset="0.5" />
  </g>
</svg>