<?xml version="1.0" encoding="utf-8"?>
<svg version="1.1" xmlns:xlink="http://www.w3.org/1999/xlink" width="167px" height="43px" xmlns="http://www.w3.org/2000/svg">
  <g transform="matrix(1 0 0 1 -1116 -563 )">
    <path d="M 1117 567  A 3 3 0 0 1 1120 564 L 1279 564  A 3 3 0 0 1 1282 567 L 1282 602  A 3 3 0 0 1 1279 605 L 1120 605  A 3 3 0 0 1 1117 602 L 1117 567  Z " fill-rule="nonzero" fill="#ff3399" stroke="none" fill-opacity="0.0980392156862745" />
    <path d="M 1116.5 567  A 3.5 3.5 0 0 1 1120 563.5 L 1279 563.5  A 3.5 3.5 0 0 1 1282.5 567 L 1282.5 602  A 3.5 3.5 0 0 1 1279 605.5 L 1120 605.5  A 3.5 3.5 0 0 1 1116.5 602 L 1116.5 567  Z " stroke-width="1" stroke-dasharray="9,4" stroke="#ff3399" fill="none" stroke-dashoffset="0.5" />
  </g>
</svg>