<?xml version="1.0" encoding="utf-8"?>
<svg version="1.1" xmlns:xlink="http://www.w3.org/1999/xlink" width="200px" height="100px" xmlns="http://www.w3.org/2000/svg">
  <g transform="matrix(1 0 0 1 -1379 -110 )">
    <path d="M 1380 114  A 3 3 0 0 1 1383 111 L 1575 111  A 3 3 0 0 1 1578 114 L 1578 206  A 3 3 0 0 1 1575 209 L 1383 209  A 3 3 0 0 1 1380 206 L 1380 114  Z " fill-rule="nonzero" fill="#ff3399" stroke="none" fill-opacity="0.0980392156862745" />
    <path d="M 1379.5 114  A 3.5 3.5 0 0 1 1383 110.5 L 1575 110.5  A 3.5 3.5 0 0 1 1578.5 114 L 1578.5 206  A 3.5 3.5 0 0 1 1575 209.5 L 1383 209.5  A 3.5 3.5 0 0 1 1379.5 206 L 1379.5 114  Z " stroke-width="1" stroke-dasharray="9,4" stroke="#ff3399" fill="none" stroke-dashoffset="0.5" />
  </g>
</svg>