<?xml version="1.0" encoding="utf-8"?>
<svg version="1.1" xmlns:xlink="http://www.w3.org/1999/xlink" width="26px" height="29px" xmlns="http://www.w3.org/2000/svg">
  <g transform="matrix(1 0 0 1 -236 -152 )">
    <path d="M 15.9453125 17.78515625  C 17.3151041666667 16.2573116987179  18 14.4186698717948  18 12.2692307692307  C 18 10.1197916666667  17.3151041666667 8.28114983974356  15.9453125 6.7533052884616  C 14.5755208333333 5.22546073717953  12.9270833333333 4.4615384615384  11 4.4615384615384  C 9.07291666666669 4.4615384615384  7.42447916666666 5.22546073717953  6.05468750000003 6.7533052884616  C 4.68489583333334 8.28114983974356  3.99999999999997 10.1197916666667  3.99999999999997 12.2692307692307  C 3.99999999999997 14.4186698717948  4.68489583333334 16.2573116987179  6.05468750000003 17.78515625  C 7.42447916666666 19.313000801282  9.07291666666669 20.0769230769231  11 20.0769230769231  C 12.9270833333333 20.0769230769231  14.5755208333333 19.313000801282  15.9453125 17.78515625  Z M 25.421875 25.2007211538462  C 25.8072916666666 25.630608974359  26 26.1534455128205  26 26.7692307692307  C 26 27.3733974358975  25.8020833333334 27.896233974359  25.4062499999999 28.3377403846154  C 25.0104166666667 28.7792467948718  24.5416666666667 29  24 29  C 23.4375 29  22.9687499999999 28.7792467948718  22.59375 28.3377403846154  L 17.234375 22.3774038461538  C 15.3697916666667 23.818108974359  13.2916666666667 24.5384615384616  11 24.5384615384616  C 9.51041666666669 24.5384615384616  8.08593750000003 24.2160456730769  6.7265625 23.5712139423077  C 5.36718750000003 22.9263822115384  4.1953125 22.0549879807693  3.21093750000003 20.95703125  C 2.22656250000003 19.8590745192307  1.4453125 18.5519831730769  0.8671875 17.0357572115384  C 0.289062500000028 15.51953125  0 13.9306891025641  0 12.2692307692307  C 0 10.6077724358975  0.289062500000028 9.0189302884616  0.8671875 7.50270432692309  C 1.4453125 5.98647836538461  2.22656250000003 4.67938701923075  3.21093750000003 3.5814302884616  C 4.1953125 2.48347355769235  5.36718750000003 1.61207932692309  6.7265625 0.967247596153839  C 8.08593750000003 0.322415865384613  9.51041666666669 0  11 0  C 12.4895833333333 0  13.9140625 0.322415865384613  15.2734375 0.967247596153839  C 16.6328125 1.61207932692309  17.8046875 2.48347355769235  18.7890625 3.5814302884616  C 19.7734375 4.67938701923075  20.5546874999999 5.98647836538461  21.1328125 7.50270432692309  C 21.7109375 9.0189302884616  22.0000000000001 10.6077724358975  22.0000000000001 12.2692307692307  C 22.0000000000001 14.8253205128205  21.3541666666667 17.1432291666667  20.0625 19.2229567307693  L 25.421875 25.2007211538462  Z " fill-rule="nonzero" fill="#999999" stroke="none" transform="matrix(1 0 0 1 236 152 )" />
  </g>
</svg>