<?xml version="1.0" encoding="utf-8"?>
<svg version="1.1" xmlns:xlink="http://www.w3.org/1999/xlink" width="189px" height="80px" xmlns="http://www.w3.org/2000/svg">
  <g transform="matrix(1 0 0 1 -316 -203 )">
    <path d="M 317 207  A 3 3 0 0 1 320 204 L 501 204  A 3 3 0 0 1 504 207 L 504 279  A 3 3 0 0 1 501 282 L 320 282  A 3 3 0 0 1 317 279 L 317 207  Z " fill-rule="nonzero" fill="#ff3399" stroke="none" fill-opacity="0.0980392156862745" />
    <path d="M 316.5 207  A 3.5 3.5 0 0 1 320 203.5 L 501 203.5  A 3.5 3.5 0 0 1 504.5 207 L 504.5 279  A 3.5 3.5 0 0 1 501 282.5 L 320 282.5  A 3.5 3.5 0 0 1 316.5 279 L 316.5 207  Z " stroke-width="1" stroke-dasharray="9,4" stroke="#ff3399" fill="none" stroke-dashoffset="0.5" />
  </g>
</svg>