<?xml version="1.0" encoding="utf-8"?>
<svg version="1.1" xmlns:xlink="http://www.w3.org/1999/xlink" width="24px" height="22px" xmlns="http://www.w3.org/2000/svg">
  <g transform="matrix(1 0 0 1 -428 -502 )">
    <path d="M 11.065953654189 7.1859296482412  C 11.5983363042186 6.67001675041877  11.8645276292335 6.04355108877724  11.8645276292335 5.3065326633166  C 11.8645276292335 4.56951423785597  11.5983363042186 3.94304857621438  11.065953654189 3.42713567839195  C 10.5335710041592 2.91122278056952  9.88710635769462 2.6532663316583  9.12655971479501 2.6532663316583  C 8.3660130718954 2.6532663316583  7.71954842543073 2.91122278056952  7.18716577540113 3.42713567839195  C 6.6547831253713 3.94304857621438  6.38859180035649 4.56951423785597  6.38859180035649 5.3065326633166  C 6.38859180035649 5.6934673366834  6.47890671420089 6.07579564489112  6.65953654188945 6.4535175879397  C 6.2697563874035 6.27847571189278  5.87522281639929 6.19095477386935  5.47593582887703 6.19095477386935  C 4.71538918597741 6.19095477386935  4.06892453951275 6.44891122278057  3.53654188948303 6.964824120603  C 3.00415923945332 7.48073701842543  2.73796791443851 8.10720268006696  2.73796791443851 8.84422110552759  C 2.73796791443851 9.58123953098828  3.00415923945332 10.2077051926298  3.53654188948303 10.7236180904523  C 4.06892453951275 11.2395309882747  4.71538918597741 11.497487437186  5.47593582887703 11.497487437186  C 6.23648247177653 11.497487437186  6.88294711824119 11.2395309882747  7.41532976827091 10.7236180904523  C 7.94771241830063 10.2077051926298  8.21390374331554 9.58123953098828  8.21390374331554 8.84422110552759  C 8.21390374331554 8.4572864321608  8.12358882947126 8.07495812395314  7.94295900178258 7.6972361809045  C 8.33273915626853 7.87227805695142  8.72727272727275 7.95979899497485  9.12655971479501 7.95979899497485  C 9.88710635769462 7.95979899497485  10.5335710041592 7.70184254606363  11.065953654189 7.1859296482412  Z M 23.5935828877006 14.4685929648242  C 23.8645276292335 14.7726130653267  24 14.9614740368509  24 15.035175879397  C 24 15.1917922948074  23.7670825906121 15.4958123953099  23.3012477718361 15.9472361809045  C 22.83541295306 16.3986599664992  22.521687462864 16.6243718592965  22.3600713012478 16.6243718592965  C 22.2745098039215 16.6243718592965  22.1390374331551 16.5506700167505  21.9536541889483 16.4032663316583  C 21.7682709447415 16.2558626465661  21.59477124183 16.1038525963149  21.4331550802139 15.9472361809045  C 21.2715389185977 15.7906197654941  21.08853238265 15.606365159129  20.8841354723708 15.3944723618091  C 20.6797385620915 15.1825795644891  20.5632798573974 15.0628140703517  20.5347593582887 15.035175879397  L 19.1657754010695 16.3618090452261  L 22.3030303030303 19.4020100502513  C 22.5692216280452 19.6599664991625  22.7023172905526 19.9731993299832  22.7023172905526 20.3417085427136  C 22.7023172905526 20.7286432160804  22.5169340463458 21.1017587939699  22.1461675579322 21.4610552763819  C 21.7754010695187 21.820351758794  21.3903743315508 22  20.9910873440285 22  C 20.6108140225788 22  20.2875816993464 21.8710217755444  20.0213903743315 21.6130653266332  L 10.4527629233512 12.3404522613066  C 8.77956030897212 13.5473199329983  7.04456327985736 14.1507537688443  5.24777183600713 14.1507537688443  C 3.6981580510992 14.1507537688443  2.43612596553771 13.6786013400335  1.46167557932267 12.734296482412  C 0.48722519310752 11.7899916247906  0 10.5670016750419  0 9.06532663316585  C 0 7.59128978224453  0.451574569221634 6.1494974874372  1.3547237076649 4.73994974874375  C 2.25787284610817 3.33040201005025  3.43672014260255 2.18802345058623  4.89126559714794 1.31281407035175  C 6.34581105169343 0.437604690117269  7.83363042186568 0  9.3547237076649 0  C 10.9043374925728 0  12.1663695781343 0.472152428810716  13.1408199643494 1.41645728643215  C 14.1152703505645 2.36076214405358  14.602495543672 3.58375209380233  14.602495543672 5.0854271356784  C 14.602495543672 6.82663316582915  13.9797979797979 8.50795644891122  12.7344028520499 10.1293969849246  L 17.7967914438503 15.035175879397  L 19.1657754010695 13.7085427135679  C 19.1372549019608 13.6809045226131  19.0136660724896 13.5680485762144  18.7950089126559 13.3699748743718  C 18.5763517528223 13.1719011725293  18.2245989304813 12.8379396984924  18.2245989304813 12.8379396984924  C 18.2245989304813 12.8379396984924  17.9061200237671 12.5131909547739  17.7540106951872 12.3335427135679  C 17.6019013666073 12.1538944723618  17.5258467023173 12.0226130653267  17.5258467023173 11.9396984924623  C 17.5258467023173 11.7830820770519  17.7587641117053 11.4790619765494  18.2245989304813 11.0276381909548  C 18.6904337492573 10.5762144053601  19.0041592394533 10.3505025125628  19.1657754010695 10.3505025125628  C 19.2893642305407 10.3505025125628  19.3986928104575 10.3965661641541  19.49376114082 10.4886934673367  C 19.5508021390374 10.5439698492462  19.7694592988711 10.7489530988275  20.1497326203208 11.1036432160805  C 20.5300059417706 11.4583333333333  20.9197860962568 11.8245393634841  21.319073083779 12.2022613065326  C 21.7183600713013 12.5799832495812  22.1295306001189 12.9761306532664  22.5525846702317 13.390703517588  C 22.9756387403446 13.8052763819095  23.3226381461676 14.1645728643216  23.5935828877006 14.4685929648242  Z " fill-rule="nonzero" fill="#c9c9c9" stroke="none" transform="matrix(1 0 0 1 428 502 )" />
  </g>
</svg>